<svg width="234" height="194" viewBox="0 0 234 194" fill="none" xmlns="http://www.w3.org/2000/svg">
<path d="M43.076 37H39.98V36.376L40.988 36.148V29.296L39.98 29.056V28.432H43.076V29.056L42.068 29.296V36.148L43.076 36.376V37ZM46.8664 37.12C46.0664 37.12 45.4264 36.844 44.9464 36.292C44.4664 35.732 44.2264 34.9 44.2264 33.796C44.2264 32.692 44.4664 31.86 44.9464 31.3C45.4344 30.732 46.0784 30.448 46.8784 30.448C47.2144 30.448 47.5064 30.492 47.7544 30.58C48.0024 30.66 48.2184 30.772 48.4024 30.916C48.5864 31.06 48.7424 31.22 48.8704 31.396H48.9424C48.9344 31.292 48.9184 31.14 48.8944 30.94C48.8784 30.732 48.8704 30.568 48.8704 30.448V27.88H49.9264V37H49.0744L48.9184 36.136H48.8704C48.7424 36.32 48.5864 36.488 48.4024 36.64C48.2184 36.784 47.9984 36.9 47.7424 36.988C47.4944 37.076 47.2024 37.12 46.8664 37.12ZM47.0344 36.244C47.7144 36.244 48.1904 36.06 48.4624 35.692C48.7424 35.316 48.8824 34.752 48.8824 34V33.808C48.8824 33.008 48.7504 32.396 48.4864 31.972C48.2224 31.54 47.7344 31.324 47.0224 31.324C46.4544 31.324 46.0264 31.552 45.7384 32.008C45.4584 32.456 45.3184 33.06 45.3184 33.82C45.3184 34.588 45.4584 35.184 45.7384 35.608C46.0264 36.032 46.4584 36.244 47.0344 36.244ZM54.4532 30.448C55.0052 30.448 55.4772 30.568 55.8692 30.808C56.2692 31.048 56.5732 31.388 56.7812 31.828C56.9972 32.26 57.1052 32.768 57.1052 33.352V33.988H52.7012C52.7172 34.716 52.9012 35.272 53.2532 35.656C53.6132 36.032 54.1132 36.22 54.7532 36.22C55.1612 36.22 55.5212 36.184 55.8332 36.112C56.1532 36.032 56.4812 35.92 56.8172 35.776V36.7C56.4892 36.844 56.1652 36.948 55.8452 37.012C55.5252 37.084 55.1452 37.12 54.7052 37.12C54.0972 37.12 53.5572 36.996 53.0852 36.748C52.6212 36.5 52.2572 36.132 51.9932 35.644C51.7372 35.148 51.6092 34.544 51.6092 33.832C51.6092 33.128 51.7252 32.524 51.9572 32.02C52.1972 31.516 52.5292 31.128 52.9532 30.856C53.3852 30.584 53.8852 30.448 54.4532 30.448ZM54.4412 31.312C53.9372 31.312 53.5372 31.476 53.2412 31.804C52.9532 32.124 52.7812 32.572 52.7252 33.148H56.0012C56.0012 32.78 55.9452 32.46 55.8332 32.188C55.7212 31.916 55.5492 31.704 55.3172 31.552C55.0932 31.392 54.8012 31.312 54.4412 31.312ZM61.8387 30.448C62.6067 30.448 63.1867 30.636 63.5787 31.012C63.9707 31.38 64.1667 31.98 64.1667 32.812V37H63.1227V32.884C63.1227 32.364 63.0067 31.976 62.7747 31.72C62.5427 31.464 62.1787 31.336 61.6827 31.336C60.9707 31.336 60.4787 31.536 60.2067 31.936C59.9347 32.336 59.7987 32.912 59.7987 33.664V37H58.7427V30.568H59.5947L59.7507 31.444H59.8107C59.9547 31.22 60.1307 31.036 60.3387 30.892C60.5547 30.74 60.7907 30.628 61.0467 30.556C61.3027 30.484 61.5667 30.448 61.8387 30.448ZM68.3086 36.256C68.4686 36.256 68.6326 36.244 68.8006 36.22C68.9686 36.188 69.1046 36.156 69.2086 36.124V36.928C69.0966 36.984 68.9366 37.028 68.7286 37.06C68.5206 37.1 68.3206 37.12 68.1286 37.12C67.7926 37.12 67.4806 37.064 67.1926 36.952C66.9126 36.832 66.6846 36.628 66.5086 36.34C66.3326 36.052 66.2446 35.648 66.2446 35.128V31.384H65.3326V30.88L66.2566 30.46L66.6766 29.092H67.3006V30.568H69.1606V31.384H67.3006V35.104C67.3006 35.496 67.3926 35.788 67.5766 35.98C67.7686 36.164 68.0126 36.256 68.3086 36.256ZM71.5526 30.568V37H70.4966V30.568H71.5526ZM71.0366 28.156C71.1966 28.156 71.3366 28.212 71.4566 28.324C71.5846 28.428 71.6486 28.596 71.6486 28.828C71.6486 29.052 71.5846 29.22 71.4566 29.332C71.3366 29.444 71.1966 29.5 71.0366 29.5C70.8606 29.5 70.7126 29.444 70.5926 29.332C70.4726 29.22 70.4126 29.052 70.4126 28.828C70.4126 28.596 70.4726 28.428 70.5926 28.324C70.7126 28.212 70.8606 28.156 71.0366 28.156ZM76.1703 37.12C75.6023 37.12 75.0943 37.004 74.6463 36.772C74.2063 36.54 73.8583 36.18 73.6023 35.692C73.3543 35.204 73.2303 34.58 73.2303 33.82C73.2303 33.028 73.3623 32.384 73.6263 31.888C73.8903 31.392 74.2463 31.028 74.6943 30.796C75.1503 30.564 75.6663 30.448 76.2423 30.448C76.5703 30.448 76.8863 30.484 77.1903 30.556C77.4943 30.62 77.7423 30.7 77.9343 30.796L77.6103 31.672C77.4183 31.6 77.1943 31.532 76.9383 31.468C76.6823 31.404 76.4423 31.372 76.2183 31.372C75.7863 31.372 75.4303 31.464 75.1503 31.648C74.8703 31.832 74.6623 32.104 74.5263 32.464C74.3903 32.824 74.3223 33.272 74.3223 33.808C74.3223 34.32 74.3903 34.756 74.5263 35.116C74.6623 35.476 74.8663 35.748 75.1383 35.932C75.4103 36.116 75.7503 36.208 76.1583 36.208C76.5103 36.208 76.8183 36.172 77.0823 36.1C77.3543 36.028 77.6023 35.94 77.8263 35.836V36.772C77.6103 36.884 77.3703 36.968 77.1063 37.024C76.8503 37.088 76.5383 37.12 76.1703 37.12ZM81.7919 30.46C82.5759 30.46 83.1559 30.632 83.5319 30.976C83.9079 31.32 84.0959 31.868 84.0959 32.62V37H83.3279L83.1239 36.088H83.0759C82.8919 36.32 82.6999 36.516 82.4999 36.676C82.3079 36.828 82.0839 36.94 81.8279 37.012C81.5799 37.084 81.2759 37.12 80.9159 37.12C80.5319 37.12 80.1839 37.052 79.8719 36.916C79.5679 36.78 79.3279 36.572 79.1519 36.292C78.9759 36.004 78.8879 35.644 78.8879 35.212C78.8879 34.572 79.1399 34.08 79.6439 33.736C80.1479 33.384 80.9239 33.192 81.9719 33.16L83.0639 33.124V32.74C83.0639 32.204 82.9479 31.832 82.7159 31.624C82.4839 31.416 82.1559 31.312 81.7319 31.312C81.3959 31.312 81.0759 31.364 80.7719 31.468C80.4679 31.564 80.1839 31.676 79.9199 31.804L79.5959 31.012C79.8759 30.86 80.2079 30.732 80.5919 30.628C80.9759 30.516 81.3759 30.46 81.7919 30.46ZM82.1039 33.892C81.3039 33.924 80.7479 34.052 80.4359 34.276C80.1319 34.5 79.9799 34.816 79.9799 35.224C79.9799 35.584 80.0879 35.848 80.3039 36.016C80.5279 36.184 80.8119 36.268 81.1559 36.268C81.6999 36.268 82.1519 36.12 82.5119 35.824C82.8719 35.52 83.0519 35.056 83.0519 34.432V33.856L82.1039 33.892ZM87.1385 37H86.0825V27.88H87.1385V37ZM95.2574 31.384H93.6374V37H92.5814V31.384H91.4534V30.892L92.5814 30.532V30.16C92.5814 29.608 92.6614 29.16 92.8214 28.816C92.9894 28.472 93.2294 28.22 93.5414 28.06C93.8534 27.9 94.2294 27.82 94.6694 27.82C94.9254 27.82 95.1574 27.844 95.3654 27.892C95.5814 27.932 95.7654 27.98 95.9174 28.036L95.6414 28.864C95.5134 28.824 95.3654 28.784 95.1974 28.744C95.0294 28.704 94.8574 28.684 94.6814 28.684C94.3294 28.684 94.0654 28.804 93.8894 29.044C93.7214 29.276 93.6374 29.644 93.6374 30.148V30.568H95.2574V31.384ZM102.01 33.772C102.01 34.308 101.938 34.784 101.794 35.2C101.658 35.608 101.458 35.956 101.194 36.244C100.938 36.532 100.622 36.752 100.246 36.904C99.8784 37.048 99.4664 37.12 99.0104 37.12C98.5864 37.12 98.1944 37.048 97.8344 36.904C97.4744 36.752 97.1624 36.532 96.8984 36.244C96.6344 35.956 96.4264 35.608 96.2744 35.2C96.1304 34.784 96.0584 34.308 96.0584 33.772C96.0584 33.06 96.1784 32.46 96.4184 31.972C96.6584 31.476 97.0024 31.1 97.4504 30.844C97.8984 30.58 98.4304 30.448 99.0464 30.448C99.6304 30.448 100.142 30.58 100.582 30.844C101.03 31.1 101.378 31.476 101.626 31.972C101.882 32.46 102.01 33.06 102.01 33.772ZM97.1504 33.772C97.1504 34.276 97.2144 34.716 97.3424 35.092C97.4784 35.46 97.6864 35.744 97.9664 35.944C98.2464 36.144 98.6024 36.244 99.0344 36.244C99.4664 36.244 99.8224 36.144 100.102 35.944C100.382 35.744 100.586 35.46 100.714 35.092C100.85 34.716 100.918 34.276 100.918 33.772C100.918 33.26 100.85 32.824 100.714 32.464C100.578 32.104 100.37 31.828 100.09 31.636C99.8184 31.436 99.4624 31.336 99.0224 31.336C98.3664 31.336 97.8904 31.552 97.5944 31.984C97.2984 32.416 97.1504 33.012 97.1504 33.772ZM106.684 30.448C106.804 30.448 106.932 30.456 107.068 30.472C107.212 30.48 107.336 30.496 107.44 30.52L107.308 31.492C107.204 31.468 107.088 31.448 106.96 31.432C106.84 31.416 106.724 31.408 106.612 31.408C106.364 31.408 106.128 31.46 105.904 31.564C105.68 31.668 105.48 31.816 105.304 32.008C105.128 32.192 104.988 32.416 104.884 32.68C104.788 32.944 104.74 33.24 104.74 33.568V37H103.684V30.568H104.548L104.668 31.744H104.716C104.852 31.504 105.016 31.288 105.208 31.096C105.4 30.896 105.62 30.74 105.868 30.628C106.116 30.508 106.388 30.448 106.684 30.448ZM114.194 30.46C114.978 30.46 115.558 30.632 115.934 30.976C116.31 31.32 116.498 31.868 116.498 32.62V37H115.73L115.526 36.088H115.478C115.294 36.32 115.102 36.516 114.902 36.676C114.71 36.828 114.486 36.94 114.23 37.012C113.982 37.084 113.678 37.12 113.318 37.12C112.934 37.12 112.586 37.052 112.274 36.916C111.97 36.78 111.73 36.572 111.554 36.292C111.378 36.004 111.29 35.644 111.29 35.212C111.29 34.572 111.542 34.08 112.046 33.736C112.55 33.384 113.326 33.192 114.374 33.16L115.466 33.124V32.74C115.466 32.204 115.35 31.832 115.118 31.624C114.886 31.416 114.558 31.312 114.134 31.312C113.798 31.312 113.478 31.364 113.174 31.468C112.87 31.564 112.586 31.676 112.322 31.804L111.998 31.012C112.278 30.86 112.61 30.732 112.994 30.628C113.378 30.516 113.778 30.46 114.194 30.46ZM114.506 33.892C113.706 33.924 113.15 34.052 112.838 34.276C112.534 34.5 112.382 34.816 112.382 35.224C112.382 35.584 112.49 35.848 112.706 36.016C112.93 36.184 113.214 36.268 113.558 36.268C114.102 36.268 114.554 36.12 114.914 35.824C115.274 35.52 115.454 35.056 115.454 34.432V33.856L114.506 33.892ZM119.541 37H118.485V27.88H119.541V37ZM122.635 37H121.579V27.88H122.635V37ZM130.85 30.448C131.642 30.448 132.278 30.724 132.758 31.276C133.246 31.828 133.49 32.66 133.49 33.772C133.49 34.5 133.378 35.116 133.154 35.62C132.938 36.116 132.63 36.492 132.23 36.748C131.838 36.996 131.374 37.12 130.838 37.12C130.51 37.12 130.218 37.076 129.962 36.988C129.706 36.9 129.486 36.788 129.302 36.652C129.126 36.508 128.974 36.352 128.846 36.184H128.774C128.79 36.32 128.806 36.492 128.822 36.7C128.838 36.908 128.846 37.088 128.846 37.24V39.88H127.79V30.568H128.654L128.798 31.444H128.846C128.974 31.26 129.126 31.092 129.302 30.94C129.486 30.788 129.702 30.668 129.95 30.58C130.206 30.492 130.506 30.448 130.85 30.448ZM130.658 31.336C130.226 31.336 129.878 31.42 129.614 31.588C129.35 31.748 129.158 31.992 129.038 32.32C128.918 32.648 128.854 33.064 128.846 33.568V33.772C128.846 34.3 128.902 34.748 129.014 35.116C129.126 35.484 129.314 35.764 129.578 35.956C129.85 36.148 130.218 36.244 130.682 36.244C131.074 36.244 131.394 36.136 131.642 35.92C131.898 35.704 132.086 35.412 132.206 35.044C132.334 34.668 132.398 34.24 132.398 33.76C132.398 33.024 132.254 32.436 131.966 31.996C131.686 31.556 131.25 31.336 130.658 31.336ZM137.608 30.46C138.392 30.46 138.972 30.632 139.348 30.976C139.724 31.32 139.912 31.868 139.912 32.62V37H139.144L138.94 36.088H138.892C138.708 36.32 138.516 36.516 138.316 36.676C138.124 36.828 137.9 36.94 137.644 37.012C137.396 37.084 137.092 37.12 136.732 37.12C136.348 37.12 136 37.052 135.688 36.916C135.384 36.78 135.144 36.572 134.968 36.292C134.792 36.004 134.704 35.644 134.704 35.212C134.704 34.572 134.956 34.08 135.46 33.736C135.964 33.384 136.74 33.192 137.788 33.16L138.88 33.124V32.74C138.88 32.204 138.764 31.832 138.532 31.624C138.3 31.416 137.972 31.312 137.548 31.312C137.212 31.312 136.892 31.364 136.588 31.468C136.284 31.564 136 31.676 135.736 31.804L135.412 31.012C135.692 30.86 136.024 30.732 136.408 30.628C136.792 30.516 137.192 30.46 137.608 30.46ZM137.92 33.892C137.12 33.924 136.564 34.052 136.252 34.276C135.948 34.5 135.796 34.816 135.796 35.224C135.796 35.584 135.904 35.848 136.12 36.016C136.344 36.184 136.628 36.268 136.972 36.268C137.516 36.268 137.968 36.12 138.328 35.824C138.688 35.52 138.868 35.056 138.868 34.432V33.856L137.92 33.892ZM144.899 30.448C145.019 30.448 145.147 30.456 145.283 30.472C145.427 30.48 145.551 30.496 145.655 30.52L145.523 31.492C145.419 31.468 145.303 31.448 145.175 31.432C145.055 31.416 144.939 31.408 144.827 31.408C144.579 31.408 144.343 31.46 144.119 31.564C143.895 31.668 143.695 31.816 143.519 32.008C143.343 32.192 143.203 32.416 143.099 32.68C143.003 32.944 142.955 33.24 142.955 33.568V37H141.899V30.568H142.763L142.883 31.744H142.931C143.067 31.504 143.231 31.288 143.423 31.096C143.615 30.896 143.835 30.74 144.083 30.628C144.331 30.508 144.603 30.448 144.899 30.448ZM149.004 36.256C149.164 36.256 149.328 36.244 149.496 36.22C149.664 36.188 149.8 36.156 149.904 36.124V36.928C149.792 36.984 149.632 37.028 149.424 37.06C149.216 37.1 149.016 37.12 148.824 37.12C148.488 37.12 148.176 37.064 147.888 36.952C147.608 36.832 147.38 36.628 147.204 36.34C147.028 36.052 146.94 35.648 146.94 35.128V31.384H146.028V30.88L146.952 30.46L147.372 29.092H147.996V30.568H149.856V31.384H147.996V35.104C147.996 35.496 148.088 35.788 148.272 35.98C148.464 36.164 148.708 36.256 149.004 36.256ZM152.248 30.568V37H151.192V30.568H152.248ZM151.732 28.156C151.892 28.156 152.032 28.212 152.152 28.324C152.28 28.428 152.344 28.596 152.344 28.828C152.344 29.052 152.28 29.22 152.152 29.332C152.032 29.444 151.892 29.5 151.732 29.5C151.556 29.5 151.408 29.444 151.288 29.332C151.168 29.22 151.108 29.052 151.108 28.828C151.108 28.596 151.168 28.428 151.288 28.324C151.408 28.212 151.556 28.156 151.732 28.156ZM156.866 37.12C156.298 37.12 155.79 37.004 155.342 36.772C154.902 36.54 154.554 36.18 154.298 35.692C154.05 35.204 153.926 34.58 153.926 33.82C153.926 33.028 154.058 32.384 154.322 31.888C154.586 31.392 154.942 31.028 155.39 30.796C155.846 30.564 156.362 30.448 156.938 30.448C157.266 30.448 157.582 30.484 157.886 30.556C158.19 30.62 158.438 30.7 158.63 30.796L158.306 31.672C158.114 31.6 157.89 31.532 157.634 31.468C157.378 31.404 157.138 31.372 156.914 31.372C156.482 31.372 156.126 31.464 155.846 31.648C155.566 31.832 155.358 32.104 155.222 32.464C155.086 32.824 155.018 33.272 155.018 33.808C155.018 34.32 155.086 34.756 155.222 35.116C155.358 35.476 155.562 35.748 155.834 35.932C156.106 36.116 156.446 36.208 156.854 36.208C157.206 36.208 157.514 36.172 157.778 36.1C158.05 36.028 158.298 35.94 158.522 35.836V36.772C158.306 36.884 158.066 36.968 157.802 37.024C157.546 37.088 157.234 37.12 156.866 37.12ZM161.107 30.568V37H160.051V30.568H161.107ZM160.591 28.156C160.751 28.156 160.891 28.212 161.011 28.324C161.139 28.428 161.203 28.596 161.203 28.828C161.203 29.052 161.139 29.22 161.011 29.332C160.891 29.444 160.751 29.5 160.591 29.5C160.415 29.5 160.267 29.444 160.147 29.332C160.027 29.22 159.967 29.052 159.967 28.828C159.967 28.596 160.027 28.428 160.147 28.324C160.267 28.212 160.415 28.156 160.591 28.156ZM166.205 30.448C166.997 30.448 167.633 30.724 168.113 31.276C168.601 31.828 168.845 32.66 168.845 33.772C168.845 34.5 168.733 35.116 168.509 35.62C168.293 36.116 167.985 36.492 167.585 36.748C167.193 36.996 166.729 37.12 166.193 37.12C165.865 37.12 165.573 37.076 165.317 36.988C165.061 36.9 164.841 36.788 164.657 36.652C164.481 36.508 164.329 36.352 164.201 36.184H164.129C164.145 36.32 164.161 36.492 164.177 36.7C164.193 36.908 164.201 37.088 164.201 37.24V39.88H163.145V30.568H164.009L164.153 31.444H164.201C164.329 31.26 164.481 31.092 164.657 30.94C164.841 30.788 165.057 30.668 165.305 30.58C165.561 30.492 165.861 30.448 166.205 30.448ZM166.013 31.336C165.581 31.336 165.233 31.42 164.969 31.588C164.705 31.748 164.513 31.992 164.393 32.32C164.273 32.648 164.209 33.064 164.201 33.568V33.772C164.201 34.3 164.257 34.748 164.369 35.116C164.481 35.484 164.669 35.764 164.933 35.956C165.205 36.148 165.573 36.244 166.037 36.244C166.429 36.244 166.749 36.136 166.997 35.92C167.253 35.704 167.441 35.412 167.561 35.044C167.689 34.668 167.753 34.24 167.753 33.76C167.753 33.024 167.609 32.436 167.321 31.996C167.041 31.556 166.605 31.336 166.013 31.336ZM172.964 30.46C173.748 30.46 174.328 30.632 174.704 30.976C175.08 31.32 175.268 31.868 175.268 32.62V37H174.5L174.296 36.088H174.248C174.064 36.32 173.872 36.516 173.672 36.676C173.48 36.828 173.256 36.94 173 37.012C172.752 37.084 172.448 37.12 172.088 37.12C171.704 37.12 171.356 37.052 171.044 36.916C170.74 36.78 170.5 36.572 170.324 36.292C170.148 36.004 170.06 35.644 170.06 35.212C170.06 34.572 170.312 34.08 170.816 33.736C171.32 33.384 172.096 33.192 173.144 33.16L174.236 33.124V32.74C174.236 32.204 174.12 31.832 173.888 31.624C173.656 31.416 173.328 31.312 172.904 31.312C172.568 31.312 172.248 31.364 171.944 31.468C171.64 31.564 171.356 31.676 171.092 31.804L170.768 31.012C171.048 30.86 171.38 30.732 171.764 30.628C172.148 30.516 172.548 30.46 172.964 30.46ZM173.276 33.892C172.476 33.924 171.92 34.052 171.608 34.276C171.304 34.5 171.152 34.816 171.152 35.224C171.152 35.584 171.26 35.848 171.476 36.016C171.7 36.184 171.984 36.268 172.328 36.268C172.872 36.268 173.324 36.12 173.684 35.824C174.044 35.52 174.224 35.056 174.224 34.432V33.856L173.276 33.892ZM180.35 30.448C181.118 30.448 181.698 30.636 182.09 31.012C182.482 31.38 182.678 31.98 182.678 32.812V37H181.634V32.884C181.634 32.364 181.518 31.976 181.286 31.72C181.054 31.464 180.69 31.336 180.194 31.336C179.482 31.336 178.99 31.536 178.718 31.936C178.446 32.336 178.31 32.912 178.31 33.664V37H177.254V30.568H178.106L178.262 31.444H178.322C178.466 31.22 178.642 31.036 178.85 30.892C179.066 30.74 179.302 30.628 179.558 30.556C179.814 30.484 180.078 30.448 180.35 30.448ZM186.82 36.256C186.98 36.256 187.144 36.244 187.312 36.22C187.48 36.188 187.616 36.156 187.72 36.124V36.928C187.608 36.984 187.448 37.028 187.24 37.06C187.032 37.1 186.832 37.12 186.64 37.12C186.304 37.12 185.992 37.064 185.704 36.952C185.424 36.832 185.196 36.628 185.02 36.34C184.844 36.052 184.756 35.648 184.756 35.128V31.384H183.844V30.88L184.768 30.46L185.188 29.092H185.812V30.568H187.672V31.384H185.812V35.104C185.812 35.496 185.904 35.788 186.088 35.98C186.28 36.164 186.524 36.256 186.82 36.256ZM193.196 35.224C193.196 35.64 193.092 35.988 192.884 36.268C192.676 36.548 192.38 36.76 191.996 36.904C191.612 37.048 191.156 37.12 190.628 37.12C190.18 37.12 189.792 37.084 189.464 37.012C189.144 36.94 188.86 36.84 188.612 36.712V35.752C188.868 35.88 189.176 36 189.536 36.112C189.904 36.216 190.276 36.268 190.652 36.268C191.188 36.268 191.576 36.184 191.816 36.016C192.056 35.84 192.176 35.608 192.176 35.32C192.176 35.16 192.132 35.016 192.044 34.888C191.956 34.76 191.796 34.632 191.564 34.504C191.34 34.376 191.016 34.232 190.592 34.072C190.176 33.912 189.82 33.752 189.524 33.592C189.228 33.432 189 33.24 188.84 33.016C188.68 32.792 188.6 32.504 188.6 32.152C188.6 31.608 188.82 31.188 189.26 30.892C189.708 30.596 190.292 30.448 191.012 30.448C191.404 30.448 191.768 30.488 192.104 30.568C192.448 30.64 192.768 30.744 193.064 30.88L192.704 31.72C192.528 31.64 192.34 31.572 192.14 31.516C191.948 31.452 191.752 31.404 191.552 31.372C191.352 31.332 191.148 31.312 190.94 31.312C190.508 31.312 190.176 31.384 189.944 31.528C189.72 31.664 189.608 31.852 189.608 32.092C189.608 32.268 189.66 32.42 189.764 32.548C189.868 32.668 190.04 32.788 190.28 32.908C190.528 33.02 190.856 33.156 191.264 33.316C191.672 33.468 192.02 33.624 192.308 33.784C192.596 33.944 192.816 34.14 192.968 34.372C193.12 34.596 193.196 34.88 193.196 35.224Z" fill="#121212"/>
<rect x="47" y="72" width="20" height="20" fill="#AEAEAE"/>
<rect x="71" y="72" width="20" height="20" fill="#F29545"/>
<rect x="95" y="72" width="20" height="20" fill="#F25041"/>
<rect x="119" y="72" width="20" height="20" fill="#33A7A6"/>
<rect x="143" y="72" width="20" height="20" fill="#8D1F66"/>
<rect x="167" y="72" width="20" height="20" fill="#323673"/>
<rect x="39.5" y="64.5" width="155" height="35" rx="3.5" stroke="#D9D9D9"/>
<rect x="32" y="150" width="20" height="20" fill="#AEAEAE"/>
<rect x="56" y="150" width="20" height="20" fill="#F25041"/>
<rect x="80" y="150" width="20" height="20" fill="#323673"/>
<rect x="134" y="150" width="20" height="20" fill="#F25041"/>
<rect x="158" y="150" width="20" height="20" fill="#323673"/>
<rect x="182" y="150" width="20" height="20" fill="#AEAEAE"/>
<g clip-path="url(#clip0_4098_3725)">
<path d="M66 128C68.21 128 70 126.21 70 124C70 121.79 68.21 120 66 120C63.79 120 62 121.79 62 124C62 126.21 63.79 128 66 128ZM66 130C63.33 130 58 131.34 58 134V136H74V134C74 131.34 68.67 130 66 130Z" fill="#828282"/>
</g>
<g clip-path="url(#clip1_4098_3725)">
<path d="M168 128C170.21 128 172 126.21 172 124C172 121.79 170.21 120 168 120C165.79 120 164 121.79 164 124C164 126.21 165.79 128 168 128ZM168 130C165.33 130 160 131.34 160 134V136H176V134C176 131.34 170.67 130 168 130Z" fill="#828282"/>
</g>
<rect x="0.5" y="0.5" width="233" height="193" rx="3.5" stroke="#D9D9D9"/>
<defs>
<clipPath id="clip0_4098_3725">
<rect width="24" height="24" fill="white" transform="translate(54 116)"/>
</clipPath>
<clipPath id="clip1_4098_3725">
<rect width="24" height="24" fill="white" transform="translate(156 116)"/>
</clipPath>
</defs>
</svg>
