<svg width="248" height="112" viewBox="0 0 248 112" fill="none" xmlns="http://www.w3.org/2000/svg">
<path d="M124.6 37.12C124.032 37.12 123.524 37.004 123.076 36.772C122.636 36.54 122.288 36.18 122.032 35.692C121.784 35.204 121.66 34.58 121.66 33.82C121.66 33.028 121.792 32.384 122.056 31.888C122.32 31.392 122.676 31.028 123.124 30.796C123.58 30.564 124.096 30.448 124.672 30.448C125 30.448 125.316 30.484 125.62 30.556C125.924 30.62 126.172 30.7 126.364 30.796L126.04 31.672C125.848 31.6 125.624 31.532 125.368 31.468C125.112 31.404 124.872 31.372 124.648 31.372C124.216 31.372 123.86 31.464 123.58 31.648C123.3 31.832 123.092 32.104 122.956 32.464C122.82 32.824 122.752 33.272 122.752 33.808C122.752 34.32 122.82 34.756 122.956 35.116C123.092 35.476 123.296 35.748 123.568 35.932C123.84 36.116 124.18 36.208 124.588 36.208C124.94 36.208 125.248 36.172 125.512 36.1C125.784 36.028 126.032 35.94 126.256 35.836V36.772C126.04 36.884 125.8 36.968 125.536 37.024C125.28 37.088 124.968 37.12 124.6 37.12Z" fill="#121212"/>
<path d="M38.54 81L37.508 78.348H34.112L33.092 81H32L35.348 72.396H36.32L39.656 81H38.54ZM36.224 74.796C36.2 74.732 36.16 74.616 36.104 74.448C36.048 74.28 35.992 74.108 35.936 73.932C35.888 73.748 35.848 73.608 35.816 73.512C35.776 73.672 35.732 73.836 35.684 74.004C35.644 74.164 35.6 74.312 35.552 74.448C35.512 74.584 35.476 74.7 35.444 74.796L34.472 77.388H37.184L36.224 74.796Z" fill="#121212"/>
<circle cx="60" cy="76" r="11.5" fill="white" stroke="#D9D9D9"/>
<circle cx="92" cy="76" r="11.5" fill="white" stroke="#D9D9D9"/>
<circle cx="92" cy="76" r="8" fill="#FFAD33"/>
<circle cx="124" cy="76" r="11.5" fill="white" stroke="#D9D9D9"/>
<circle cx="156" cy="76" r="11.5" fill="white" stroke="#D9D9D9"/>
<circle cx="188" cy="76" r="11.5" fill="white" stroke="#D9D9D9"/>
<path d="M211.612 72.432C212.324 72.432 212.92 72.5 213.4 72.636C213.888 72.772 214.252 72.996 214.492 73.308C214.74 73.62 214.864 74.036 214.864 74.556C214.864 74.892 214.8 75.192 214.672 75.456C214.552 75.712 214.368 75.928 214.12 76.104C213.88 76.272 213.584 76.388 213.232 76.452V76.512C213.592 76.568 213.916 76.672 214.204 76.824C214.5 76.976 214.732 77.192 214.9 77.472C215.068 77.752 215.152 78.116 215.152 78.564C215.152 79.084 215.032 79.528 214.792 79.896C214.552 80.256 214.208 80.532 213.76 80.724C213.32 80.908 212.792 81 212.176 81H209.164V72.432H211.612ZM211.828 76.08C212.564 76.08 213.068 75.964 213.34 75.732C213.612 75.492 213.748 75.14 213.748 74.676C213.748 74.204 213.58 73.868 213.244 73.668C212.916 73.46 212.388 73.356 211.66 73.356H210.244V76.08H211.828ZM210.244 76.98V80.088H211.972C212.732 80.088 213.26 79.94 213.556 79.644C213.852 79.348 214 78.96 214 78.48C214 78.176 213.932 77.912 213.796 77.688C213.668 77.464 213.448 77.292 213.136 77.172C212.832 77.044 212.416 76.98 211.888 76.98H210.244Z" fill="#121212"/>
<rect x="0.5" y="0.5" width="247" height="111" rx="3.5" stroke="#D9D9D9"/>
</svg>
