<svg width="234" height="193" viewBox="0 0 234 193" fill="none" xmlns="http://www.w3.org/2000/svg">
<rect x="0.5" y="0.5" width="233" height="192" rx="3.5" fill="white"/>
<path d="M104.444 37L101.624 29.488H101.576C101.592 29.648 101.604 29.852 101.612 30.1C101.628 30.348 101.64 30.62 101.648 30.916C101.656 31.204 101.66 31.5 101.66 31.804V37H100.664V28.432H102.26L104.9 35.452H104.948L107.636 28.432H109.22V37H108.152V31.732C108.152 31.452 108.156 31.176 108.164 30.904C108.172 30.624 108.184 30.364 108.2 30.124C108.216 29.876 108.228 29.668 108.236 29.5H108.188L105.332 37H104.444ZM112.463 30.568V37H111.407V30.568H112.463ZM111.947 28.156C112.107 28.156 112.247 28.212 112.367 28.324C112.495 28.428 112.559 28.596 112.559 28.828C112.559 29.052 112.495 29.22 112.367 29.332C112.247 29.444 112.107 29.5 111.947 29.5C111.771 29.5 111.623 29.444 111.503 29.332C111.383 29.22 111.323 29.052 111.323 28.828C111.323 28.596 111.383 28.428 111.503 28.324C111.623 28.212 111.771 28.156 111.947 28.156ZM116.024 33.712L113.804 30.568H115.004L116.66 32.992L118.304 30.568H119.492L117.272 33.712L119.612 37H118.412L116.66 34.432L114.884 37H113.696L116.024 33.712ZM123.102 30.448C123.654 30.448 124.126 30.568 124.518 30.808C124.918 31.048 125.222 31.388 125.43 31.828C125.646 32.26 125.754 32.768 125.754 33.352V33.988H121.35C121.366 34.716 121.55 35.272 121.902 35.656C122.262 36.032 122.762 36.22 123.402 36.22C123.81 36.22 124.17 36.184 124.482 36.112C124.802 36.032 125.13 35.92 125.466 35.776V36.7C125.138 36.844 124.814 36.948 124.494 37.012C124.174 37.084 123.794 37.12 123.354 37.12C122.746 37.12 122.206 36.996 121.734 36.748C121.27 36.5 120.906 36.132 120.642 35.644C120.386 35.148 120.258 34.544 120.258 33.832C120.258 33.128 120.374 32.524 120.606 32.02C120.846 31.516 121.178 31.128 121.602 30.856C122.034 30.584 122.534 30.448 123.102 30.448ZM123.09 31.312C122.586 31.312 122.186 31.476 121.89 31.804C121.602 32.124 121.43 32.572 121.374 33.148H124.65C124.65 32.78 124.594 32.46 124.482 32.188C124.37 31.916 124.198 31.704 123.966 31.552C123.742 31.392 123.45 31.312 123.09 31.312ZM129.671 37.12C128.871 37.12 128.231 36.844 127.751 36.292C127.271 35.732 127.031 34.9 127.031 33.796C127.031 32.692 127.271 31.86 127.751 31.3C128.239 30.732 128.883 30.448 129.683 30.448C130.019 30.448 130.311 30.492 130.559 30.58C130.807 30.66 131.023 30.772 131.207 30.916C131.391 31.06 131.547 31.22 131.675 31.396H131.747C131.739 31.292 131.723 31.14 131.699 30.94C131.683 30.732 131.675 30.568 131.675 30.448V27.88H132.731V37H131.879L131.723 36.136H131.675C131.547 36.32 131.391 36.488 131.207 36.64C131.023 36.784 130.803 36.9 130.547 36.988C130.299 37.076 130.007 37.12 129.671 37.12ZM129.839 36.244C130.519 36.244 130.995 36.06 131.267 35.692C131.547 35.316 131.687 34.752 131.687 34V33.808C131.687 33.008 131.555 32.396 131.291 31.972C131.027 31.54 130.539 31.324 129.827 31.324C129.259 31.324 128.831 31.552 128.543 32.008C128.263 32.456 128.123 33.06 128.123 33.82C128.123 34.588 128.263 35.184 128.543 35.608C128.831 36.032 129.263 36.244 129.839 36.244Z" fill="#121212"/>
<rect x="47" y="72" width="20" height="20" fill="#AEAEAE"/>
<rect x="71" y="72" width="20" height="20" fill="#F29545"/>
<rect x="95" y="72" width="20" height="20" fill="#F25041"/>
<rect x="119" y="72" width="20" height="20" fill="#33A7A6"/>
<rect x="143" y="72" width="20" height="20" fill="#8D1F66"/>
<rect x="167" y="72" width="20" height="20" fill="#323673"/>
<rect x="39.5" y="64.5" width="155" height="35" rx="3.5" stroke="#D9D9D9"/>
<rect x="134" y="149" width="20" height="20" fill="#F29545"/>
<rect x="158" y="149" width="20" height="20" fill="#F25041"/>
<rect x="182" y="149" width="20" height="20" fill="#8D1F66"/>
<rect x="32" y="149" width="20" height="20" fill="#AEAEAE"/>
<rect x="56" y="149" width="20" height="20" fill="#8D1F66"/>
<rect x="80" y="149" width="20" height="20" fill="#323673"/>
<g clip-path="url(#clip0_4098_3746)">
<path d="M66 127C68.21 127 70 125.21 70 123C70 120.79 68.21 119 66 119C63.79 119 62 120.79 62 123C62 125.21 63.79 127 66 127ZM66 129C63.33 129 58 130.34 58 133V135H74V133C74 130.34 68.67 129 66 129Z" fill="#828282"/>
</g>
<g clip-path="url(#clip1_4098_3746)">
<path d="M168 127C170.21 127 172 125.21 172 123C172 120.79 170.21 119 168 119C165.79 119 164 120.79 164 123C164 125.21 165.79 127 168 127ZM168 129C165.33 129 160 130.34 160 133V135H176V133C176 130.34 170.67 129 168 129Z" fill="#828282"/>
</g>
<rect x="0.5" y="0.5" width="233" height="192" rx="3.5" stroke="#D9D9D9"/>
<defs>
<clipPath id="clip0_4098_3746">
<rect width="24" height="24" fill="white" transform="translate(54 115)"/>
</clipPath>
<clipPath id="clip1_4098_3746">
<rect width="24" height="24" fill="white" transform="translate(156 115)"/>
</clipPath>
</defs>
</svg>
