<svg width="168" height="112" viewBox="0 0 168 112" fill="none" xmlns="http://www.w3.org/2000/svg">
<rect x="0.5" y="0.5" width="167" height="111" rx="3.5" fill="#E1E1E1"/>
<path d="M73.54 37L72.508 34.348H69.112L68.092 37H67L70.348 28.396H71.32L74.656 37H73.54ZM71.224 30.796C71.2 30.732 71.16 30.616 71.104 30.448C71.048 30.28 70.992 30.108 70.936 29.932C70.888 29.748 70.848 29.608 70.816 29.512C70.776 29.672 70.732 29.836 70.684 30.004C70.644 30.164 70.6 30.312 70.552 30.448C70.512 30.584 70.476 30.7 70.444 30.796L69.472 33.388H72.184L71.224 30.796ZM80.2173 37L77.7812 30.568H78.9093L80.2773 34.36C80.3413 34.536 80.4093 34.732 80.4813 34.948C80.5533 35.164 80.6173 35.372 80.6733 35.572C80.7293 35.764 80.7693 35.928 80.7933 36.064H80.8413C80.8733 35.928 80.9173 35.76 80.9733 35.56C81.0373 35.36 81.1053 35.152 81.1773 34.936C81.2573 34.72 81.3253 34.528 81.3813 34.36L82.7493 30.568H83.8773L81.4293 37H80.2173ZM89.083 35.224C89.083 35.64 88.979 35.988 88.771 36.268C88.563 36.548 88.267 36.76 87.883 36.904C87.499 37.048 87.043 37.12 86.515 37.12C86.067 37.12 85.679 37.084 85.351 37.012C85.031 36.94 84.747 36.84 84.499 36.712V35.752C84.755 35.88 85.063 36 85.423 36.112C85.791 36.216 86.163 36.268 86.539 36.268C87.075 36.268 87.463 36.184 87.703 36.016C87.943 35.84 88.063 35.608 88.063 35.32C88.063 35.16 88.019 35.016 87.931 34.888C87.843 34.76 87.683 34.632 87.451 34.504C87.227 34.376 86.903 34.232 86.479 34.072C86.063 33.912 85.707 33.752 85.411 33.592C85.115 33.432 84.887 33.24 84.727 33.016C84.567 32.792 84.487 32.504 84.487 32.152C84.487 31.608 84.707 31.188 85.147 30.892C85.595 30.596 86.179 30.448 86.899 30.448C87.291 30.448 87.655 30.488 87.991 30.568C88.335 30.64 88.655 30.744 88.951 30.88L88.591 31.72C88.415 31.64 88.227 31.572 88.027 31.516C87.835 31.452 87.639 31.404 87.439 31.372C87.239 31.332 87.035 31.312 86.827 31.312C86.395 31.312 86.063 31.384 85.831 31.528C85.607 31.664 85.495 31.852 85.495 32.092C85.495 32.268 85.547 32.42 85.651 32.548C85.755 32.668 85.927 32.788 86.167 32.908C86.415 33.02 86.743 33.156 87.151 33.316C87.559 33.468 87.907 33.624 88.195 33.784C88.483 33.944 88.703 34.14 88.855 34.372C89.007 34.596 89.083 34.88 89.083 35.224ZM96.3464 28.432C97.0584 28.432 97.6544 28.5 98.1344 28.636C98.6224 28.772 98.9864 28.996 99.2264 29.308C99.4744 29.62 99.5984 30.036 99.5984 30.556C99.5984 30.892 99.5344 31.192 99.4064 31.456C99.2864 31.712 99.1024 31.928 98.8544 32.104C98.6144 32.272 98.3184 32.388 97.9664 32.452V32.512C98.3264 32.568 98.6504 32.672 98.9384 32.824C99.2344 32.976 99.4664 33.192 99.6344 33.472C99.8024 33.752 99.8864 34.116 99.8864 34.564C99.8864 35.084 99.7664 35.528 99.5264 35.896C99.2864 36.256 98.9424 36.532 98.4944 36.724C98.0544 36.908 97.5264 37 96.9104 37H93.8984V28.432H96.3464ZM96.5624 32.08C97.2984 32.08 97.8024 31.964 98.0744 31.732C98.3464 31.492 98.4824 31.14 98.4824 30.676C98.4824 30.204 98.3144 29.868 97.9784 29.668C97.6504 29.46 97.1224 29.356 96.3944 29.356H94.9784V32.08H96.5624ZM94.9784 32.98V36.088H96.7064C97.4664 36.088 97.9944 35.94 98.2904 35.644C98.5864 35.348 98.7344 34.96 98.7344 34.48C98.7344 34.176 98.6664 33.912 98.5304 33.688C98.4024 33.464 98.1824 33.292 97.8704 33.172C97.5664 33.044 97.1504 32.98 96.6224 32.98H94.9784Z" fill="#2B2B2B"/>
<path d="M38.54 81L37.508 78.348H34.112L33.092 81H32L35.348 72.396H36.32L39.656 81H38.54ZM36.224 74.796C36.2 74.732 36.16 74.616 36.104 74.448C36.048 74.28 35.992 74.108 35.936 73.932C35.888 73.748 35.848 73.608 35.816 73.512C35.776 73.672 35.732 73.836 35.684 74.004C35.644 74.164 35.6 74.312 35.552 74.448C35.512 74.584 35.476 74.7 35.444 74.796L34.472 77.388H37.184L36.224 74.796Z" fill="#2B2B2B"/>
<circle cx="60" cy="76" r="11.5" fill="white" stroke="#D9D9D9"/>
<circle cx="60" cy="76" r="8" fill="#FFAD33"/>
<path d="M99.612 72.432C100.324 72.432 100.92 72.5 101.4 72.636C101.888 72.772 102.252 72.996 102.492 73.308C102.74 73.62 102.864 74.036 102.864 74.556C102.864 74.892 102.8 75.192 102.672 75.456C102.552 75.712 102.368 75.928 102.12 76.104C101.88 76.272 101.584 76.388 101.232 76.452V76.512C101.592 76.568 101.916 76.672 102.204 76.824C102.5 76.976 102.732 77.192 102.9 77.472C103.068 77.752 103.152 78.116 103.152 78.564C103.152 79.084 103.032 79.528 102.792 79.896C102.552 80.256 102.208 80.532 101.76 80.724C101.32 80.908 100.792 81 100.176 81H97.164V72.432H99.612ZM99.828 76.08C100.564 76.08 101.068 75.964 101.34 75.732C101.612 75.492 101.748 75.14 101.748 74.676C101.748 74.204 101.58 73.868 101.244 73.668C100.916 73.46 100.388 73.356 99.66 73.356H98.244V76.08H99.828ZM98.244 76.98V80.088H99.972C100.732 80.088 101.26 79.94 101.556 79.644C101.852 79.348 102 78.96 102 78.48C102 78.176 101.932 77.912 101.796 77.688C101.668 77.464 101.448 77.292 101.136 77.172C100.832 77.044 100.416 76.98 99.888 76.98H98.244Z" fill="#2B2B2B"/>
<circle cx="124" cy="76" r="11.5" fill="white" stroke="#D9D9D9"/>
<rect x="0.5" y="0.5" width="167" height="111" rx="3.5" stroke="#D9D9D9"/>
</svg>
